<?xml version="1.0" encoding="UTF-8"?>
<svg id="Layer_2" data-name="Layer 2" xmlns="http://www.w3.org/2000/svg" viewBox="0 0 161.69 161.69">
  <defs>
    <style>
      .cls-1 {
        fill: none;
      }

      .cls-1, .cls-2, .cls-3, .cls-4, .cls-5 {
        stroke-width: 0px;
      }

      .cls-2 {
        fill: #fff;
      }

      .cls-2, .cls-3 {
        opacity: .4;
      }

      .cls-4 {
        fill: #27272a;
      }

      .cls-5 {
        fill: #00c2f3;
      }
    </style>
  </defs>
  <g id="Layer_1-2" data-name="Layer 1">
    <g>
      <rect class="cls-4" width="161.69" height="161.69" rx="33.87" ry="33.87"/>
      <g>
        <path class="cls-1" d="m119.05,86.5c-.07-.5-.12-1.73-.41-2.9-3.47-14.2-20.57-20.97-33.46-13.28-9.34,5.57-12.94,15.48-8.91,24.46,4.49,10,16.97,15.45,27.39,11.96,9.01-3.01,15.42-11.14,15.39-20.24Zm-21.62,13.57c-7.56,0-14.38-6.28-14.44-13.3-.07-6.91,6.87-13.21,14.5-13.18,7.7.03,14.54,6.31,14.42,13.23-.12,7.08-6.87,13.26-14.48,13.25Z"/>
        <path class="cls-5" d="m116.03,119.18c19.8-10.79,24.37-38.77,6.53-53.24-9.99-8.1-20.24-15.86-30.5-23.61h-14.62c-.19,1.65,1.12,2.86,2.35,4,1.05.96,2.21,1.8,3.32,2.7,2.85,2.32,5.69,4.65,9.12,7.45-13.64,0-26.4.01-39.15-.01-2.18,0-4.26.31-6.24,1.21-2.44,1.11-4.12,2.89-3.67,5.7.48,2.96,2.82,3.76,5.48,3.77,5.82.03,11.64-.01,17.46.04.83,0,1.81-.44,2.66.59-7.37,5.67-14.72,11.3-22.05,16.95-4.69,3.61-9.4,7.19-14.04,10.85-2.44,1.93-4.67,4.18-4.68,7.52-.01,2.25,1.22,4.13,3.36,5.07,2.88,1.26,5.57.66,7.99-1.28,6.82-5.48,13.65-10.96,20.89-16.78.5,10.02,3.96,18.17,11.18,24.47,2.46,2.14,5.2,3.9,8.11,5.31h35.06c.48-.24.98-.46,1.45-.72Zm-39.75-24.39c-4.03-8.99-.43-18.89,8.91-24.46,12.89-7.69,29.99-.92,33.46,13.28.29,1.17.34,2.4.41,2.9.03,9.11-6.38,17.23-15.39,20.24-10.42,3.49-22.9-1.96-27.39-11.96Z"/>
        <path class="cls-5" d="m97.49,73.58c-7.63-.03-14.56,6.28-14.5,13.18.07,7.02,6.88,13.3,14.44,13.3,7.6,0,14.36-6.18,14.48-13.25.11-6.93-6.73-13.2-14.42-13.23Z"/>
        <path class="cls-5" d="m88.92,39.95c-1.47-1.11-3.16-1.95-5.02-2.1-2.67-.23-4.83.86-6.08,3.24-.23.44-.35.85-.4,1.23h14.62c-1.04-.79-2.09-1.58-3.13-2.37Z"/>
        <path class="cls-2" d="m88.92,39.95c-1.47-1.11-3.16-1.95-5.02-2.1-2.67-.23-4.83.86-6.08,3.24-.23.44-.35.85-.4,1.23h14.62c-1.04-.79-2.09-1.58-3.13-2.37Z"/>
        <path class="cls-5" d="m114.57,119.89h-35.06c10.83,5.24,24.12,5.36,35.06,0Z"/>
        <path class="cls-3" d="m114.57,119.89h-35.06c10.83,5.24,24.12,5.36,35.06,0Z"/>
      </g>
    </g>
  </g>
</svg>