<?xml version="1.0" encoding="UTF-8"?>
<svg id="Layer_2" data-name="Layer 2" xmlns="http://www.w3.org/2000/svg" viewBox="0 0 152.16 152.16">
  <defs>
    <style>
      .cls-1 {
        fill: none;
      }

      .cls-1, .cls-2, .cls-3, .cls-4, .cls-5 {
        stroke-width: 0px;
      }

      .cls-2 {
        fill: #fff;
      }

      .cls-2, .cls-3 {
        opacity: .4;
      }

      .cls-4 {
        fill: #27272a;
      }

      .cls-5 {
        fill: #00c2f3;
      }
    </style>
  </defs>
  <g id="Layer_1-2" data-name="Layer 1">
    <g>
      <rect class="cls-4" x="0" width="152.16" height="152.16" rx="29.09" ry="29.09"/>
      <polygon class="cls-1" points="54.37 99.26 51.93 106.46 78.77 106.46 76.33 99.26 54.37 99.26"/>
      <polygon class="cls-1" points="65.35 66.65 58.14 88.19 72.64 88.19 65.35 66.65"/>
      <path class="cls-5" d="m54.37,99.26h21.96l2.44,7.2h15.1l-18.47-51.05h-19.93l-18.47,51.05h14.93l2.44-7.2Zm10.98-32.61l7.29,21.55h-14.5l7.21-21.55Z"/>
      <path class="cls-5" d="m99.3,50.3c0,2.18.8,4.01,2.39,5.49,1.59,1.48,3.65,2.22,6.16,2.22s4.48-.74,6.08-2.22c1.59-1.48,2.39-3.31,2.39-5.49,0-1.17-.22-2.23-.66-3.19h-15.7c-.44.96-.66,2.03-.66,3.19Z"/>
      <rect class="cls-5" x="100.64" y="62.88" width="14.34" height="43.58"/>
      <polygon class="cls-5" points="37 106.46 35.84 109.66 50.85 109.66 51.93 106.46 37 106.46"/>
      <polygon class="cls-3" points="37 106.46 35.84 109.66 50.85 109.66 51.93 106.46 37 106.46"/>
      <polygon class="cls-5" points="78.77 106.46 79.85 109.66 95.03 109.66 93.87 106.46 78.77 106.46"/>
      <polygon class="cls-3" points="78.77 106.46 79.85 109.66 95.03 109.66 93.87 106.46 78.77 106.46"/>
      <rect class="cls-5" x="100.64" y="106.46" width="14.34" height="3.2"/>
      <rect class="cls-3" x="100.64" y="106.46" width="14.34" height="3.2"/>
      <polygon class="cls-5" points="73.73 50.8 57.13 50.8 55.47 55.41 75.4 55.41 73.73 50.8"/>
      <polygon class="cls-2" points="73.73 50.8 57.13 50.8 55.47 55.41 75.4 55.41 73.73 50.8"/>
      <path class="cls-5" d="m107.85,42.5h0c-2.51,0-4.57.74-6.16,2.22-.76.71-1.33,1.5-1.73,2.38h15.7c-.4-.88-.97-1.67-1.73-2.38-1.59-1.48-3.62-2.22-6.08-2.22Z"/>
      <path class="cls-2" d="m107.85,42.5h0c-2.51,0-4.57.74-6.16,2.22-.76.71-1.33,1.5-1.73,2.38h15.7c-.4-.88-.97-1.67-1.73-2.38-1.59-1.48-3.62-2.22-6.08-2.22Z"/>
    </g>
  </g>
</svg>