<?xml version="1.0" encoding="UTF-8"?>
<svg id="Layer_2" data-name="Layer 2" xmlns="http://www.w3.org/2000/svg" viewBox="0 0 780.01 93.86">
  <defs>
    <style>
      .cls-1 {
        fill: #fffafc;
        stroke-width: 0px;
      }
    </style>
  </defs>
  <g id="Layer_1-2" data-name="Layer 1">
    <g>
      <path class="cls-1" d="m67.71,37.89c-2.67,1.21-5.24,2.73-7.7,4.55-2.47,1.82-4.81,3.78-7.04,5.88-2.23,2.1-4.37,4.31-6.43,6.61-2.06,2.3-4.02,4.55-5.88,6.73-1.05,1.13-2.06,2.3-3.03,3.52-.97,1.21-1.94,2.43-2.91,3.64-.41.49-.85,1.13-1.33,1.94-.49.81-1.03,1.58-1.64,2.3-.61.73-1.25,1.37-1.94,1.94-.69.56-1.39.85-2.12.85-1.38,0-2.33-.65-2.85-1.94-.53-1.29-.83-2.79-.91-4.49-.08-1.7-.04-3.4.12-5.09.16-1.7.2-2.99.12-3.88-.16-3.4-.55-6.83-1.15-10.31-.61-3.48-1.92-6.63-3.94-9.46-1.86-2.59-4.17-4.37-6.92-5.34-2.75-.97-5.66-1.46-8.73-1.46-.73-.24-1.4-.49-2-.73s-1.03-.81-1.27-1.7c-.24-.89-.18-1.64.18-2.24s.85-1.15,1.46-1.64c.61-.49,1.29-.89,2.06-1.21.77-.32,1.44-.61,2-.85,6.55-3.07,13.22-5.74,20.02-8.01,6.79-2.26,13.63-4.33,20.5-6.19,7.04-2.02,14.09-3.78,21.17-5.28,7.08-1.5,14.25-2.69,21.53-3.58,2.99-.32,6.04-.63,9.16-.91,3.11-.28,6.25-.36,9.4-.24,3.15.12,6.27.45,9.34.97,3.07.53,6.02,1.4,8.85,2.61,3.32,1.38,5.94,3.2,7.89,5.46,1.94,2.27,3.23,4.79,3.88,7.58.65,2.79.69,5.74.12,8.86-.57,3.11-1.7,6.17-3.4,9.16-3.4,5.74-7.6,10.86-12.62,15.35-5.02,4.49-10.19,8.63-15.53,12.43-6.07,4.29-12.31,8.15-18.74,11.58-6.43,3.44-13.08,6.49-19.96,9.16-3.4,1.29-6.75,2.47-10.07,3.52-3.32,1.05-6.71,2.02-10.19,2.91-1.7.4-3.42.77-5.16,1.09-1.74.32-3.5.65-5.28.97-.65.08-1.44.22-2.37.42-.93.2-1.86.34-2.79.42-.93.08-1.82.06-2.67-.06-.85-.12-1.56-.47-2.12-1.03-1.21-1.38-1.54-2.49-.97-3.34.56-.85,1.47-1.5,2.73-1.94,1.25-.45,2.61-.75,4.06-.91,1.46-.16,2.47-.28,3.03-.36,3.64-.57,7.22-1.29,10.74-2.18,3.52-.89,7.02-1.9,10.49-3.03,6.79-2.27,13.36-4.91,19.71-7.95,6.35-3.03,12.51-6.45,18.5-10.25,5.82-3.64,11.5-7.68,17.04-12.13,5.54-4.45,10.29-9.54,14.25-15.28,1.05-1.46,2.02-3.07,2.91-4.85.89-1.78,1.54-3.58,1.94-5.4.4-1.82.44-3.62.12-5.4-.32-1.78-1.21-3.44-2.67-4.97-2.02-2.02-4.45-3.46-7.28-4.31-2.83-.85-5.58-1.47-8.25-1.88-6.39-.89-12.84-.99-19.35-.3-6.51.69-12.92,1.6-19.23,2.73-5.9,1.13-11.75,2.43-17.53,3.88-5.78,1.46-11.54,3.07-17.29,4.85-4.37,1.38-8.73,2.79-13.1,4.25-4.37,1.46-8.61,3.11-12.74,4.97,2.59.97,4.93,2.3,7.04,4,2.1,1.7,3.84,3.84,5.22,6.43,1.86,3.64,3.09,7.4,3.7,11.28s.99,7.85,1.15,11.89c3.72-4.61,7.72-9.1,12.01-13.47,2.59-2.59,5.28-5.13,8.07-7.64,2.79-2.51,5.72-4.81,8.79-6.91.73-.49,1.47-1.01,2.24-1.58.77-.56,1.6-.93,2.49-1.09.97-.49,1.86-.55,2.67-.18.81.36,1.39.93,1.76,1.7.36.77.46,1.6.3,2.49-.16.89-.73,1.58-1.7,2.06Z"/>
      <path class="cls-1" d="m152.39,55.48c.4.16.77.34,1.09.55.32.2.61.42.85.67,1.62-.16,3.23.08,4.85.73,1.62.89,2.47,1.84,2.55,2.85.08,1.01-.2,2.08-.85,3.21,1.78-.24,3.58-.65,5.4-1.21,1.82-.56,3.62-1.21,5.4-1.94,1.78-.73,3.54-1.46,5.28-2.18,1.74-.73,3.42-1.33,5.03-1.82.89-.24,1.84-.49,2.85-.73,1.01-.24,1.96-.04,2.85.61.73.57,1.17,1.17,1.33,1.82.16.65.12,1.27-.12,1.88-.24.61-.65,1.15-1.21,1.64-.57.48-1.21.77-1.94.85-2.59.41-5.14,1.15-7.64,2.24-2.51,1.09-4.97,2.04-7.4,2.85-1.13.41-2.35.85-3.64,1.33-1.29.49-2.63.89-4,1.21-1.38.32-2.75.5-4.12.55-1.38.04-2.67-.14-3.88-.55-1.38-.65-2.24-1.48-2.61-2.49s-.34-2.08.06-3.21c-1.62.24-3.24.61-4.85,1.09-2.1.65-4.18,1.38-6.25,2.18-2.06.81-4.15,1.41-6.25,1.82-1.37.24-2.79.24-4.25,0s-2.55-1.05-3.28-2.43c-.89-1.7-.95-3.29-.18-4.79.77-1.5,1.94-2.79,3.52-3.88s3.3-1.98,5.16-2.67c1.86-.69,3.4-1.11,4.61-1.27,2.02-.24,4-.26,5.94-.06,1.94.2,3.84.59,5.7,1.15Zm-16.01,7.16c.81-.16,1.62-.36,2.43-.61.81-.24,1.62-.52,2.43-.85-1.94.24-3.56.73-4.85,1.46Z"/>
      <path class="cls-1" d="m185.87,55.6c.65,0,1.27.1,1.88.3.61.2,1.11.55,1.52,1.03.73.89,1.07,1.72,1.03,2.49-.04.77-.26,1.52-.67,2.24,2.1-.4,4.2-.89,6.31-1.46,2.1-.56,4.2-1.13,6.31-1.7.97-.24,2.02-.53,3.15-.85,1.13-.32,2.28-.56,3.46-.73,1.17-.16,2.34-.22,3.52-.18,1.17.04,2.24.3,3.21.79,1.37.65,2.18,1.42,2.43,2.3.24.89.16,1.82-.24,2.79,1.13-.32,2.26-.63,3.4-.91,1.13-.28,2.26-.63,3.4-1.03,2.18-.65,4.39-1.31,6.61-2,2.22-.69,4.47-1.35,6.73-2,1.05-.32,2.28-.67,3.7-1.03,1.41-.36,2.65-.18,3.7.55.65.49,1.05,1.07,1.21,1.76.16.69.14,1.38-.06,2.06-.2.69-.59,1.25-1.15,1.7-.57.45-1.21.67-1.94.67-3.07.24-6.19.97-9.34,2.18-3.15,1.21-6.19,2.27-9.1,3.15-.89.24-1.92.56-3.09.97-1.17.4-2.37.77-3.58,1.09-1.21.32-2.43.53-3.64.61-1.21.08-2.3-.08-3.28-.49-1.13-.49-1.92-1.32-2.37-2.49-.45-1.17-.51-2.37-.18-3.58-1.78.16-3.52.45-5.22.85-1.7.41-3.4.81-5.09,1.21-1.13.32-2.33.69-3.58,1.09-1.25.41-2.51.81-3.76,1.21-1.25.4-2.51.73-3.76.97-1.25.24-2.49.32-3.7.24-.73-.08-1.46-.32-2.18-.73-.97-.65-1.54-1.33-1.7-2.06-.16-.73-.1-1.46.18-2.18.28-.73.69-1.46,1.21-2.18.53-.73,1.03-1.41,1.52-2.06-.32-1.05-.22-2.08.3-3.09.53-1.01,1.48-1.52,2.85-1.52Z"/>
      <path class="cls-1" d="m243.73,55.6c1.05.08,1.86.35,2.43.79.56.45.95,1.01,1.15,1.7.2.69.26,1.44.18,2.24-.08.81-.2,1.62-.36,2.43.73-.16,1.43-.26,2.12-.3.69-.04,1.27-.14,1.76-.3,2.02-.49,4.08-1.09,6.19-1.82,2.67-.89,5.36-1.76,8.07-2.61,2.71-.85,5.48-1.47,8.31-1.88.81-.08,1.68,0,2.61.24.93.24,1.7.65,2.3,1.21.61.57.93,1.23.97,2,.04.77-.47,1.56-1.52,2.37-.57.41-1.15.61-1.76.61s-1.23.04-1.88.12c-1.21.16-2.43.36-3.64.61s-2.39.53-3.52.85c-2.43.65-4.83,1.33-7.22,2.06-2.39.73-4.75,1.5-7.1,2.31-1.38.48-2.97,1.03-4.79,1.64-1.82.61-3.5.67-5.03.18-.97-.41-1.68-.95-2.12-1.64-.44-.69-.73-1.46-.85-2.3s-.1-1.72.06-2.61c.16-.89.36-1.74.61-2.55-.32-.48-.49-1.05-.49-1.7s.12-1.23.36-1.76c.24-.52.63-.97,1.15-1.33.53-.36,1.19-.55,2-.55Zm31.05-22.68c0,.89-.12,1.58-.36,2.06-.24.48-.61.83-1.09,1.03-.49.2-1.05.26-1.7.18-.65-.08-1.29-.2-1.94-.36,0,1.54-.57,2.87-1.7,4-.81.81-2.04,1.46-3.7,1.94-1.66.49-3.46.77-5.4.85-1.94.08-3.88-.02-5.82-.3-1.94-.28-3.64-.79-5.09-1.52-1.46-.73-2.51-1.7-3.15-2.91-.65-1.21-.61-2.71.12-4.49.56-1.54,1.52-2.73,2.85-3.58,1.33-.85,2.83-1.47,4.49-1.88,1.66-.4,3.35-.65,5.09-.73,1.74-.08,3.29-.08,4.67,0,.81,0,1.92.08,3.34.24,1.41.16,2.81.45,4.18.85,1.37.41,2.57.97,3.58,1.7,1.01.73,1.56,1.7,1.64,2.91Zm-9.46,3.52c.32-.89.12-1.66-.61-2.3-.16-.08-.28-.12-.36-.12s-.16-.04-.24-.12c-.89-.16-2-.34-3.34-.55-1.33-.2-2.71-.3-4.12-.3s-2.73.18-3.94.55c-1.21.36-2.1.95-2.67,1.76,0,.08-.04.16-.12.24.16.65.75,1.15,1.76,1.52,1.01.36,2.12.63,3.34.79,1.21.16,2.38.24,3.52.24h2.3c.81-.16,1.6-.34,2.37-.55.77-.2,1.47-.59,2.12-1.15Z"/>
      <path class="cls-1" d="m332.04,62.27c-1.86.16-3.7.47-5.52.91-1.82.45-3.66.87-5.52,1.27-4.85,1.13-9.67,2.2-14.44,3.21-4.77,1.01-9.62,1.76-14.56,2.24-1.29.16-2.65.28-4.06.36-1.42.08-2.83.04-4.25-.12-1.42-.16-2.77-.47-4.06-.91-1.29-.45-2.47-1.11-3.52-2-.89-.73-1.6-1.58-2.12-2.55-.52-.97-.85-1.98-.97-3.03-.12-1.05-.02-2.08.3-3.09.32-1.01.93-1.92,1.82-2.73.57-.56,1.47-1.03,2.73-1.4,1.25-.36,2.65-.63,4.19-.79,1.54-.16,3.07-.2,4.61-.12,1.54.08,2.87.36,4,.85,1.13.48,1.92,1.15,2.37,2,.44.85.38,1.92-.18,3.21-.49.97-1.21,1.66-2.18,2.06-.97.41-2.06.67-3.28.79-1.21.12-2.47.12-3.76,0-1.29-.12-2.43-.26-3.4-.42.32.32.97.59,1.94.79.97.2,2,.35,3.09.42,1.09.08,2.1.12,3.03.12h1.76c3.96-.32,7.9-.89,11.83-1.7,3.92-.81,7.82-1.66,11.71-2.55,2.83-.65,5.64-1.31,8.43-2,2.79-.69,5.6-1.19,8.43-1.52,1.21-.08,2.22.2,3.03.85.81.65,1.33,1.4,1.58,2.24.24.85.14,1.64-.3,2.37-.45.73-1.36,1.13-2.73,1.21Z"/>
      <path class="cls-1" d="m370.86,26.48c-3.72,2.59-7.28,5.36-10.67,8.31-3.4,2.95-6.67,6.05-9.83,9.28-1.7,1.78-3.36,3.58-4.97,5.4-1.62,1.82-3.2,3.7-4.73,5.64-.32.41-.79.95-1.39,1.64-.61.69-1.25,1.46-1.94,2.31-.69.85-1.32,1.72-1.88,2.61-.57.89-1.01,1.74-1.33,2.55,1.37-.32,2.73-.75,4.06-1.27,1.33-.53,2.69-1.07,4.06-1.64,2.26-.89,4.55-1.78,6.85-2.67,2.3-.89,4.63-1.62,6.97-2.18,1.05-.24,2.38-.52,4-.85,1.62-.32,2.95-.12,4,.61.81.57,1.29,1.17,1.46,1.82.16.65.1,1.25-.18,1.82-.28.57-.73,1.09-1.33,1.58-.61.49-1.27.81-2,.97-1.38.32-2.77.61-4.19.85-1.42.24-2.81.61-4.18,1.09-3.24,1.13-6.41,2.39-9.52,3.76-3.11,1.37-6.37,2.38-9.77,3.03-1.13.16-2.29.14-3.46-.06-1.17-.2-2.12-.83-2.85-1.88-1.13-1.62-1.38-3.5-.73-5.64.65-2.14,1.68-4.26,3.09-6.37,1.41-2.1,2.97-4.06,4.67-5.88,1.7-1.82,3.03-3.25,4-4.31,3.31-3.64,6.73-7.14,10.25-10.49,3.52-3.35,7.18-6.57,10.98-9.64,1.13-.89,2.41-2,3.82-3.34,1.41-1.33,2.81-2.16,4.18-2.49.81-.24,1.52-.18,2.12.18s1.05.85,1.33,1.46c.28.61.36,1.27.24,2-.12.73-.51,1.33-1.15,1.82Z"/>
      <path class="cls-1" d="m439.88,89.93c-1.78,0-2.85-.65-3.21-1.94-.36-1.29-.36-2.77,0-4.43.36-1.66.89-3.3,1.58-4.91.69-1.62,1.23-2.79,1.64-3.52l.73-1.58c-3.88.16-7.74.18-11.58.06-3.84-.12-7.7-.42-11.58-.91-.65-.08-1.78-.22-3.4-.42-1.62-.2-3.11-.57-4.49-1.09-1.38-.53-2.35-1.21-2.91-2.06-.57-.85-.16-1.96,1.21-3.34.73-.65,1.5-.95,2.3-.91.81.04,1.66.14,2.55.3,1.62.41,3.25.71,4.91.91,1.66.2,3.34.38,5.03.55,7.28.89,14.64,1.01,22.08.36,1.37-2.02,2.79-4,4.25-5.94,1.46-1.94,2.99-3.84,4.61-5.7.4-.49,1.39-1.64,2.97-3.46,1.58-1.82,3.44-3.86,5.58-6.13,2.14-2.26,4.43-4.57,6.85-6.91,2.43-2.34,4.75-4.33,6.97-5.94,2.22-1.62,4.19-2.67,5.88-3.15s2.87,0,3.52,1.46c.4.89.34,1.78-.18,2.67-.53.89-1.25,1.72-2.18,2.49-.93.77-1.92,1.48-2.97,2.12-1.05.65-1.86,1.21-2.43,1.7-3.07,2.67-6,5.46-8.79,8.37-2.79,2.91-5.52,5.9-8.19,8.98-1.21,1.38-2.39,2.79-3.52,4.25-1.13,1.46-2.26,2.91-3.4,4.37,5.09-.73,10.19-1.7,15.29-2.91,8.09-1.86,16.03-4.39,23.84-7.58,7.8-3.19,14.98-7.34,21.53-12.43,1.29-.97,2.67-2.1,4.12-3.4,1.46-1.29,2.79-2.71,4-4.25,1.21-1.54,2.2-3.15,2.97-4.85.77-1.7,1.07-3.48.91-5.34v.12c-.24-2.91-1.36-5.36-3.34-7.34-1.98-1.98-4.31-3.64-6.97-4.97-2.67-1.33-5.5-2.37-8.49-3.09-2.99-.73-5.62-1.29-7.88-1.7-7.6-1.29-15.31-1.82-23.11-1.58-7.8.24-15.51,1.05-23.11,2.43-6.39,1.13-12.8,2.77-19.23,4.91-6.43,2.14-12.35,5.16-17.77,9.04-2.1,1.54-4.02,3.26-5.76,5.16-1.74,1.9-3.13,4.06-4.18,6.49-.49,1.05-1.17,1.8-2.06,2.24-.89.45-1.76.59-2.61.42-.85-.16-1.52-.61-2-1.33s-.49-1.7,0-2.91c.97-2.59,2.26-4.97,3.88-7.16,1.62-2.18,3.46-4.19,5.52-6s4.29-3.44,6.67-4.85c2.38-1.41,4.79-2.69,7.22-3.82,6.23-2.99,12.7-5.3,19.41-6.91,6.71-1.62,13.5-2.79,20.38-3.52,7.28-.81,14.62-1.13,22.02-.97,7.4.16,14.66,1.13,21.78,2.91,2.75.65,5.62,1.56,8.61,2.73,2.99,1.17,5.76,2.63,8.31,4.37,2.55,1.74,4.69,3.84,6.43,6.31,1.74,2.47,2.73,5.32,2.97,8.55.24,4.45-.83,8.51-3.21,12.19-2.39,3.68-5.44,7-9.16,9.95-3.72,2.95-7.68,5.52-11.89,7.7-4.21,2.18-8.01,4-11.4,5.46-15.45,6.87-31.62,11.16-48.52,12.86-.49.65-.93,1.35-1.33,2.12-.41.77-.81,1.52-1.21,2.24-.65,1.13-1.21,2.28-1.7,3.46-.49,1.17-.85,2.37-1.09,3.58-.16.56-.28,1.17-.36,1.82-.08.65-.22,1.23-.42,1.76-.2.53-.53.97-.97,1.33-.45.36-1.07.55-1.88.55Z"/>
      <path class="cls-1" d="m568.1,62.27c-4.12.08-8.33.18-12.62.3-4.29.12-8.49-.35-12.62-1.41-.32,0-.65-.08-.97-.25-.49,1.39-1.19,2.71-2.12,3.97-.93,1.25-1.96,2.33-3.09,3.21-1.13.89-2.37,1.54-3.7,1.94-1.33.4-2.65.44-3.94.12-1.21-.32-2.12-.93-2.73-1.82-.61-.89-.95-1.9-1.03-3.03-.08-1.13.06-2.27.42-3.42.36-1.15.87-2.17,1.52-3.08,1.05-1.32,2.39-2.3,4-2.96,1.62-.66,3.23-.74,4.85-.25.16-1.13.81-2.02,1.94-2.67,1.13-.65,2.34-.56,3.64.24,1.21.73,2.53,1.27,3.94,1.64,1.41.36,2.89.59,4.43.67,1.54.08,3.05.1,4.55.06,1.5-.04,2.93-.06,4.31-.06,1.62,0,3.36-.1,5.22-.3,1.86-.2,3.56-.06,5.09.43.89.33,1.52.87,1.88,1.61.36.74.49,1.48.36,2.22s-.47,1.4-1.03,1.98c-.57.58-1.33.86-2.3.86Zm-36.27,1.58c.24-.24.73-.36,1.46-.36v-1.09c-.16.16-.41.34-.73.55-.32.2-.57.51-.73.91Z"/>
      <path class="cls-1" d="m568.34,55.6c1.54,0,2.71.57,3.52,1.7.81,1.13.99,2.14.55,3.03-.45.89-1.03,1.78-1.76,2.67,1.46,0,2.93-.2,4.43-.61,1.5-.4,2.99-.91,4.49-1.52,1.5-.61,2.97-1.23,4.43-1.88,1.46-.65,2.83-1.17,4.12-1.58,1.13-.24,2.32-.36,3.58-.36s2.32.45,3.21,1.33c.65.81.99,1.54,1.03,2.18.04.65-.1,1.25-.42,1.82l5.94-1.82c2.26-.65,4.49-1.27,6.67-1.88s4.41-1.19,6.67-1.76c.57-.16,1.23-.36,2-.61.77-.24,1.54-.44,2.3-.61.77-.16,1.52-.22,2.24-.18.73.04,1.37.26,1.94.67.73.49,1.17,1.07,1.33,1.76.16.69.14,1.35-.06,2-.2.65-.59,1.21-1.15,1.7-.57.49-1.25.73-2.06.73-2.75.24-5.48.79-8.19,1.64-2.71.85-5.4,1.74-8.07,2.67-2.67.93-5.36,1.76-8.07,2.49-2.71.73-5.44,1.09-8.19,1.09-1.46,0-2.59-.45-3.4-1.33-.97-.89-1.46-1.9-1.46-3.03-2.75,1.05-5.52,1.98-8.31,2.79-2.79.81-5.48,1.01-8.07.61-1.62-.24-2.79-.71-3.52-1.4-.73-.69-1.13-1.5-1.21-2.43-.08-.93.1-1.92.55-2.97.45-1.05.99-2.06,1.64-3.03-.16-.89.04-1.74.61-2.55.57-.81,1.46-1.25,2.67-1.33Z"/>
      <path class="cls-1" d="m694.62,22.85c-2.51,2.1-4.97,4.19-7.4,6.25-2.43,2.06-4.81,4.15-7.16,6.25,2.34,0,4.79-.02,7.34-.06,2.55-.04,5.07,0,7.58.12,2.51.12,4.95.41,7.34.85,2.38.45,4.63,1.15,6.73,2.12.89.41,1.66.97,2.3,1.7.65.73,1.05,1.66,1.21,2.79.08,1.05-.18,1.86-.79,2.43-.61.57-1.29.91-2.06,1.03-.77.12-1.54.02-2.3-.3-.77-.32-1.27-.93-1.52-1.82-.65-.4-1.4-.71-2.24-.91-.85-.2-1.72-.36-2.61-.49-.89-.12-1.78-.22-2.67-.3-.89-.08-1.66-.16-2.3-.24-2.35-.24-4.67-.44-6.97-.61-2.31-.16-4.63-.28-6.98-.36l-8.13-.24-1.21,1.09c-3.32,3.15-6.81,6.57-10.49,10.25-3.68,3.68-6.57,7.62-8.67,11.83,2.83-.65,5.6-1.6,8.31-2.85,2.71-1.25,5.44-2.37,8.19-3.34,1.62-.56,3.25-1.07,4.91-1.52,1.66-.44,3.34-.75,5.03-.91.73-.08,1.46,0,2.18.24.73.24,1.33.61,1.82,1.09.48.49.79,1.07.91,1.76.12.69-.1,1.44-.67,2.24-.65.89-1.62,1.38-2.91,1.46-1.29.08-2.43.24-3.4.48-2.18.41-4.33,1.01-6.43,1.82-2.1.81-4.21,1.66-6.31,2.55-2.1.89-4.37,1.82-6.79,2.79-2.43.97-4.85,1.41-7.28,1.33-3.07-.16-4.77-1.11-5.09-2.85-.32-1.74.16-3.86,1.46-6.37-1.7.97-3.6,1.92-5.7,2.85-2.1.93-4.21,1.8-6.31,2.61-2.1.81-4.11,1.52-6,2.12-1.9.61-3.58,1.07-5.03,1.4-1.13.16-2.29.14-3.46-.06-1.17-.2-2.12-.83-2.85-1.88-1.13-1.62-1.38-3.5-.73-5.64.65-2.14,1.68-4.26,3.09-6.37,1.41-2.1,2.97-4.06,4.67-5.88,1.7-1.82,3.03-3.25,4-4.31,3.31-3.64,6.73-7.14,10.25-10.49,3.52-3.35,7.18-6.57,10.98-9.64,1.13-.89,2.41-2,3.82-3.34,1.41-1.33,2.81-2.16,4.18-2.49.81-.24,1.52-.18,2.12.18s1.05.85,1.33,1.46c.28.61.36,1.27.24,2-.12.73-.51,1.33-1.15,1.82-3.72,2.59-7.28,5.36-10.67,8.31-3.4,2.95-6.67,6.05-9.83,9.28-1.7,1.78-3.36,3.58-4.97,5.4-1.62,1.82-3.2,3.7-4.73,5.64-.32.41-.81.97-1.46,1.7-.65.73-1.29,1.52-1.94,2.37-.65.85-1.27,1.72-1.88,2.61-.61.89-1.03,1.7-1.27,2.43,1.94-.32,4.18-.89,6.73-1.7,2.55-.81,5.17-1.76,7.88-2.85,2.71-1.09,5.42-2.26,8.13-3.52,2.71-1.25,5.23-2.57,7.58-3.94,1.86-2.34,3.66-4.39,5.4-6.13,1.74-1.74,2.89-2.89,3.46-3.46l1.82-1.82h-.97c-1.7.16-3.38.28-5.03.36-1.66.08-3.38.24-5.16.49-.41,0-.85.06-1.33.18-.49.12-.93.1-1.33-.06-.81-.4-1.17-1.03-1.09-1.88.08-.85.52-1.35,1.33-1.52,6.07-1.05,12.21-1.78,18.44-2.18,4.37-4.04,8.9-8.09,13.59-12.13,1.05-.97,2.28-2.2,3.7-3.7,1.41-1.5,2.85-2.45,4.31-2.85.81-.24,1.52-.22,2.12.06.61.28,1.07.73,1.4,1.33.32.61.44,1.27.36,2-.08.73-.41,1.38-.97,1.94Zm-70.6,43.31c0-.24-.04-.44-.12-.61,0,.32.04.53.12.61Z"/>
      <path class="cls-1" d="m719,62.27c-4.12.08-8.33.18-12.62.3-4.29.12-8.49-.35-12.62-1.41-.32,0-.65-.08-.97-.25-.49,1.39-1.19,2.71-2.12,3.97-.93,1.25-1.96,2.33-3.09,3.21-1.13.89-2.37,1.54-3.7,1.94-1.33.4-2.65.44-3.94.12-1.21-.32-2.12-.93-2.73-1.82-.61-.89-.95-1.9-1.03-3.03-.08-1.13.06-2.27.42-3.42.36-1.15.87-2.17,1.52-3.08,1.05-1.32,2.39-2.3,4-2.96,1.62-.66,3.23-.74,4.85-.25.16-1.13.81-2.02,1.94-2.67,1.13-.65,2.34-.56,3.64.24,1.21.73,2.53,1.27,3.94,1.64,1.41.36,2.89.59,4.43.67,1.54.08,3.05.1,4.55.06,1.5-.04,2.93-.06,4.31-.06,1.62,0,3.36-.1,5.22-.3,1.86-.2,3.56-.06,5.09.43.89.33,1.52.87,1.88,1.61.36.74.49,1.48.36,2.22s-.47,1.4-1.03,1.98c-.57.58-1.33.86-2.3.86Zm-36.27,1.58c.24-.24.73-.36,1.46-.36v-1.09c-.16.16-.41.34-.73.55-.32.2-.57.51-.73.91Z"/>
      <path class="cls-1" d="m719.25,55.6c.65,0,1.27.1,1.88.3.61.2,1.11.55,1.52,1.03.73.89,1.07,1.72,1.03,2.49-.04.77-.26,1.52-.67,2.24,2.1-.4,4.2-.89,6.31-1.46,2.1-.56,4.2-1.13,6.31-1.7.97-.24,2.02-.53,3.15-.85,1.13-.32,2.28-.56,3.46-.73,1.17-.16,2.34-.22,3.52-.18,1.17.04,2.24.3,3.21.79,1.37.65,2.18,1.42,2.43,2.3.24.89.16,1.82-.24,2.79,1.13-.32,2.26-.63,3.4-.91,1.13-.28,2.26-.63,3.4-1.03,2.18-.65,4.39-1.31,6.61-2,2.22-.69,4.47-1.35,6.73-2,1.05-.32,2.28-.67,3.7-1.03,1.41-.36,2.65-.18,3.7.55.65.49,1.05,1.07,1.21,1.76.16.69.14,1.38-.06,2.06-.2.69-.59,1.25-1.15,1.7-.57.45-1.21.67-1.94.67-3.07.24-6.19.97-9.34,2.18-3.15,1.21-6.19,2.27-9.1,3.15-.89.24-1.92.56-3.09.97-1.17.4-2.37.77-3.58,1.09-1.21.32-2.43.53-3.64.61-1.21.08-2.3-.08-3.28-.49-1.13-.49-1.92-1.32-2.37-2.49-.45-1.17-.51-2.37-.18-3.58-1.78.16-3.52.45-5.22.85-1.7.41-3.4.81-5.09,1.21-1.13.32-2.33.69-3.58,1.09-1.25.41-2.51.81-3.76,1.21-1.25.4-2.51.73-3.76.97-1.25.24-2.49.32-3.7.24-.73-.08-1.46-.32-2.18-.73-.97-.65-1.54-1.33-1.7-2.06-.16-.73-.1-1.46.18-2.18.28-.73.69-1.46,1.21-2.18.53-.73,1.03-1.41,1.52-2.06-.32-1.05-.22-2.08.3-3.09.53-1.01,1.48-1.52,2.85-1.52Z"/>
    </g>
  </g>
</svg>