<?xml version="1.0" encoding="UTF-8"?>
<svg id="Layer_2" data-name="Layer 2" xmlns="http://www.w3.org/2000/svg" viewBox="0 0 154.19 154.19">
  <defs>
    <style>
      .cls-1 {
        fill: none;
      }

      .cls-1, .cls-2, .cls-3, .cls-4, .cls-5 {
        stroke-width: 0px;
      }

      .cls-2 {
        fill: #fff;
      }

      .cls-2, .cls-3 {
        opacity: .4;
      }

      .cls-4 {
        fill: #27272a;
      }

      .cls-5 {
        fill: #00c2f3;
      }
    </style>
  </defs>
  <g id="Layer_1-2" data-name="Layer 1">
    <g>
      <rect class="cls-4" y="0" width="154.19" height="154.19" rx="32.3" ry="32.3"/>
      <path class="cls-1" d="m80.93,48.83h-4.93c2.16,1.56,3.89,3.44,5.16,5.67,1.8,3.17,2.71,6.81,2.71,10.92,0,3.8-.87,7.27-2.61,10.41-1.74,3.14-4.42,5.68-8.03,7.61-3.61,1.93-8.09,2.89-13.44,2.89h-9.89v19.52h49.04c-.1-.08-.22-.16-.32-.25-3.24-2.83-4.85-7.45-4.85-13.86v-20.72h-6.35v-13.25h6.35v-8.19h-12.83v-.75Z"/>
      <path class="cls-1" d="m65.38,71.49c1.49-1.43,2.24-3.45,2.24-6.07s-.75-4.63-2.24-6.07c-1.49-1.43-3.77-2.15-6.81-2.15h-8.68v16.43h8.68c3.05,0,5.32-.71,6.81-2.15Z"/>
      <path class="cls-5" d="m49.89,86.33h9.89c5.35,0,9.83-.96,13.44-2.89,3.61-1.93,6.28-4.46,8.03-7.61,1.74-3.14,2.61-6.61,2.61-10.41,0-4.11-.9-7.75-2.71-10.92-1.27-2.23-3-4.12-5.16-5.67h-42.07v-4.5h0v61.52h15.96v-19.52Zm0-29.12h8.68c3.05,0,5.32.72,6.81,2.15,1.49,1.43,2.24,3.45,2.24,6.07s-.75,4.64-2.24,6.07c-1.49,1.43-3.77,2.15-6.81,2.15h-8.68v-16.43Z"/>
      <path class="cls-5" d="m93.75,49.58v8.19h-6.35v13.25h6.35v20.72c0,6.41,1.62,11.03,4.85,13.86.1.09.21.16.32.25h21.34v-9.53h-5.69c-1.74,0-2.99-.34-3.73-1.03-.75-.68-1.12-1.8-1.12-3.36v-20.91h10.45v-13.25h-10.45v-8.19h-15.96Z"/>
      <rect class="cls-5" x="33.93" y="105.85" width="15.96" height="4"/>
      <rect class="cls-3" x="33.93" y="105.85" width="15.96" height="4"/>
      <path class="cls-5" d="m112.14,109.85h8.12v-4h-21.34c3.21,2.66,7.61,4,13.22,4Z"/>
      <path class="cls-3" d="m112.14,109.85h8.12v-4h-21.34c3.21,2.66,7.61,4,13.22,4Z"/>
      <path class="cls-5" d="m76,48.83c-.91-.66-1.89-1.26-2.96-1.79-3.61-1.8-8.03-2.71-13.25-2.71h-25.85v4.5h42.07Z"/>
      <path class="cls-2" d="m76,48.83c-.91-.66-1.89-1.26-2.96-1.79-3.61-1.8-8.03-2.71-13.25-2.71h-25.85v4.5h42.07Z"/>
      <rect class="cls-5" x="93.75" y="45.08" width="15.96" height="4.5"/>
      <rect class="cls-2" x="93.75" y="45.08" width="15.96" height="4.5"/>
    </g>
  </g>
</svg>