<?xml version="1.0" encoding="UTF-8"?>
<svg id="Layer_2" data-name="Layer 2" xmlns="http://www.w3.org/2000/svg" viewBox="0 0 161.69 161.69">
  <defs>
    <style>
      .cls-1 {
        fill: none;
      }

      .cls-1, .cls-2, .cls-3, .cls-4, .cls-5 {
        stroke-width: 0px;
      }

      .cls-2 {
        fill: #fff;
      }

      .cls-2, .cls-3 {
        opacity: .4;
      }

      .cls-4 {
        fill: #27272a;
      }

      .cls-5 {
        fill: #00c2f3;
      }
    </style>
  </defs>
  <g id="Layer_1-2" data-name="Layer 1">
    <g>
      <rect class="cls-4" y="0" width="161.69" height="161.69" rx="33.87" ry="33.87"/>
      <path class="cls-1" d="m54.47,59.6h-9.1v17.23h9.1c3.2,0,5.58-.75,7.15-2.25,1.57-1.5,2.35-3.62,2.35-6.36s-.78-4.86-2.35-6.36c-1.57-1.5-3.95-2.25-7.15-2.25Z"/>
      <path class="cls-5" d="m71.88,50.22H28.63v60.58h16.74v-20.66h10.37c5.61,0,10.31-1.01,14.09-3.03,3.78-2.02,6.59-4.68,8.42-7.98,1.83-3.29,2.74-6.93,2.74-10.91,0-4.31-.95-8.12-2.84-11.45-1.5-2.63-3.6-4.81-6.28-6.54Zm-10.26,24.36c-1.57,1.5-3.95,2.25-7.15,2.25h-9.1v-17.23h9.1c3.2,0,5.58.75,7.15,2.25,1.57,1.5,2.35,3.62,2.35,6.36s-.78,4.86-2.35,6.36Z"/>
      <path class="cls-5" d="m90.14,67.78c-1.73,2.58-2.59,5.43-2.59,8.56,0,3.72.95,6.67,2.84,8.86,1.89,2.19,4.14,3.79,6.75,4.8,2.61,1.01,5.87,1.97,9.79,2.89,3.65.91,6.3,1.75,7.93,2.5,1.63.75,2.45,1.91,2.45,3.47,0,1.31-.57,2.37-1.71,3.18-1.14.82-2.76,1.22-4.85,1.22-2.28,0-4.21-.59-5.77-1.76-1.57-1.17-2.45-2.71-2.64-4.6h-16.54c.26,3.52,1.47,6.7,3.62,9.54,1.54,2.03,3.48,3.74,5.82,5.15h30.87c1.73-1.15,3.15-2.51,4.28-4.08,1.79-2.51,2.69-5.37,2.69-8.56-.07-3.78-1.06-6.8-2.99-9.05-1.93-2.25-4.16-3.88-6.7-4.89-2.54-1.01-5.84-2.04-9.89-3.08-3.52-.78-6.12-1.57-7.78-2.35-1.66-.78-2.5-1.96-2.5-3.52,0-1.3.52-2.33,1.57-3.08,1.04-.75,2.54-1.13,4.5-1.13,2.28,0,4.13.55,5.53,1.66,1.4,1.11,2.23,2.61,2.5,4.5h15.46c-.59-5.61-2.86-10.11-6.8-13.51-.24-.21-.51-.39-.77-.59h-31.31c-1.51,1.12-2.77,2.4-3.75,3.87Z"/>
      <rect class="cls-5" x="28.63" y="110.81" width="16.74" height="4"/>
      <rect class="cls-3" x="28.63" y="110.81" width="16.74" height="4"/>
      <path class="cls-5" d="m98.22,113.14c3.72,1.63,7.96,2.45,12.72,2.45,4.44,0,8.33-.72,11.7-2.15,1.26-.54,2.42-1.16,3.46-1.85h-30.87c.94.57,1.93,1.09,2.99,1.55Z"/>
      <path class="cls-3" d="m98.22,113.14c3.72,1.63,7.96,2.45,12.72,2.45,4.44,0,8.33-.72,11.7-2.15,1.26-.54,2.42-1.16,3.46-1.85h-30.87c.94.57,1.93,1.09,2.99,1.55Z"/>
      <path class="cls-5" d="m69.64,48.94c-3.79-1.89-8.42-2.84-13.9-2.84h-27.11v4.13h43.25c-.71-.46-1.45-.89-2.24-1.29Z"/>
      <path class="cls-2" d="m69.64,48.94c-3.79-1.89-8.42-2.84-13.9-2.84h-27.11v4.13h43.25c-.71-.46-1.45-.89-2.24-1.29Z"/>
      <path class="cls-5" d="m109.76,59.41c-4.63,0-8.63.75-11.98,2.25-1.45.65-2.74,1.4-3.88,2.25h31.31c-3.87-2.99-9-4.5-15.43-4.5h0Z"/>
      <path class="cls-2" d="m109.76,59.41c-4.63,0-8.63.75-11.98,2.25-1.45.65-2.74,1.4-3.88,2.25h31.31c-3.87-2.99-9-4.5-15.43-4.5h0Z"/>
    </g>
  </g>
</svg>